<?xml version="1.0" encoding="iso-8859-1"?>
<!-- Uploaded to: SVG Repo, www.svgrepo.com, Generator: SVG Repo Mixer Tools -->
<!DOCTYPE svg PUBLIC "-//W3C//DTD SVG 1.1//EN" "http://www.w3.org/Graphics/SVG/1.1/DTD/svg11.dtd">
<svg fill="#000000" version="1.1" id="Capa_1" xmlns="http://www.w3.org/2000/svg" xmlns:xlink="http://www.w3.org/1999/xlink" 
	 width="800px" height="800px" viewBox="0 0 83.818 83.818"
	 xml:space="preserve">
<g>
	<g>
		<path d="M41.909,0C18.764,0,0.001,18.764,0.001,41.91c0,23.145,18.764,41.908,41.908,41.908c23.146,0,41.908-18.764,41.908-41.908
			C83.817,18.763,65.056,0,41.909,0z M53.383,40.215h1.757v-1.758c0-0.553,0.448-1,1-1c0.553,0,1,0.447,1,1v1.758h1.758
			c0.553,0,1,0.447,1,1c0,0.553-0.447,1-1,1H57.14v1.758c0,0.554-0.447,1-1,1c-0.552,0-1-0.446-1-1v-1.758h-1.757
			c-0.552,0-1-0.447-1-1C52.383,40.662,52.831,40.215,53.383,40.215z M41.909,20.851c5.89,0,10.681,4.792,10.681,10.682
			s-4.792,10.682-10.681,10.682c-5.889,0-10.681-4.792-10.681-10.682S36.019,20.851,41.909,20.851z M24.67,41.189h2.975v-2.976
			c0-0.553,0.448-1,1-1c0.552,0,1,0.447,1,1v2.976h2.976c0.552,0,1,0.447,1,1c0,0.553-0.448,1-1,1h-2.976v2.975c0,0.553-0.448,1-1,1
			c-0.552,0-1-0.447-1-1v-2.975H24.67c-0.552,0-1-0.447-1-1C23.67,41.636,24.118,41.189,24.67,41.189z M36.326,62.967h-7.745
			c-3.292,0-5.971-2.679-5.971-5.971c0-3.293,2.678-5.972,5.971-5.972h10.843c3.292,0,5.972,2.679,5.972,5.972c0,0.553-0.448,1-1,1
			c-0.553,0-1-0.447-1-1c0-2.189-1.781-3.972-3.972-3.972H28.581c-2.189,0-3.971,1.78-3.971,3.972c0,2.189,1.781,3.971,3.971,3.971
			h7.745c0.552,0,1,0.447,1,1C37.326,62.521,36.878,62.967,36.326,62.967z M55.238,62.967H44.394c-3.292,0-5.971-2.679-5.971-5.971
			c0-0.553,0.448-1,1-1c0.552,0,1,0.447,1,1c0,2.189,1.781,3.971,3.971,3.971h10.844c2.189,0,3.971-1.78,3.971-3.971
			c0-2.189-1.781-3.972-3.971-3.972h-7.745c-0.552,0-1-0.447-1-1c0-0.554,0.448-1,1-1h7.745c3.291,0,5.971,2.679,5.971,5.972
			C61.208,60.288,58.53,62.967,55.238,62.967z"/>
		<path d="M41.909,40.215c4.787,0,8.681-3.895,8.681-8.682s-3.896-8.682-8.681-8.682c-4.786,0-8.681,3.895-8.681,8.682
			S37.123,40.215,41.909,40.215z M37.359,30.533h3.55v-3.55c0-0.553,0.448-1,1-1c0.552,0,1,0.447,1,1v3.55h3.55c0.552,0,1,0.447,1,1
			c0,0.553-0.448,1-1,1h-3.55v3.551c0,0.553-0.448,1-1,1c-0.552,0-1-0.447-1-1v-3.551h-3.55c-0.552,0-1-0.447-1-1
			C36.359,30.98,36.807,30.533,37.359,30.533z"/>
	</g>
</g>
</svg>